<?xml version="1.0" encoding="UTF-8"?>
<!DOCTYPE svg PUBLIC "-//W3C//DTD SVG 1.1//EN" "http://www.w3.org/Graphics/SVG/1.1/DTD/svg11.dtd">
<svg xmlns="http://www.w3.org/2000/svg" 
     version="1.1" 
     viewBox="320 280 375 455"  
     style="shape-rendering:geometricPrecision; text-rendering:geometricPrecision; image-rendering:optimizeQuality; fill-rule:evenodd; clip-rule:evenodd" 
     xmlns:xlink="http://www.w3.org/1999/xlink">
  <g><path style="opacity:0.923" fill="#020302" d="M 579.5,285.5 C 582.155,285.659 584.488,286.659 586.5,288.5C 590.137,303.604 587.637,317.604 579,330.5C 559.451,351.046 536.618,366.879 510.5,378C 505.78,379.198 501.113,379.698 496.5,379.5C 498.177,387.073 499.344,394.74 500,402.5C 515.338,402.531 530.505,404.364 545.5,408C 566.076,415.081 586.743,421.748 607.5,428C 635.315,439.815 655.148,459.648 667,487.5C 683.894,528.436 691.228,571.103 689,615.5C 686.672,637.781 678.006,657.115 663,673.5C 641.57,696.477 615.403,711.644 584.5,719C 530.647,732.847 476.313,735.181 421.5,726C 383.024,716.858 356.191,694.025 341,657.5C 330.784,624.756 331.117,592.089 342,559.5C 354.71,521.734 373.376,487.401 398,456.5C 422.631,431.773 451.798,415.273 485.5,407C 484.922,405.189 484.422,403.355 484,401.5C 483.707,395.406 483.54,389.406 483.5,383.5C 459.143,396.265 435.476,395.098 412.5,380C 402.482,369.632 396.149,357.299 393.5,343C 394.108,338.192 396.441,334.525 400.5,332C 413.067,326.887 426.067,325.554 439.5,328C 452.993,331.524 465.66,336.858 477.5,344C 480.35,346.682 483.016,349.516 485.5,352.5C 490.771,331.411 501.438,313.911 517.5,300C 534.803,288.426 553.803,284.26 574.5,287.5C 576.557,287.564 578.223,286.898 579.5,285.5 Z"/></g>
  <g><path style="opacity:1" fill="#46c551" d="M 571.5,298.5 C 572.833,298.5 574.167,298.5 575.5,298.5C 572.919,315.082 564.919,328.415 551.5,338.5C 547.284,337.485 543.284,335.985 539.5,334C 547.167,328.333 554.833,322.667 562.5,317C 567.254,311.366 565.921,308.699 558.5,309C 553.578,312.378 548.745,315.878 544,319.5C 544.108,314.196 544.441,308.863 545,303.5C 553.855,301.472 562.689,299.806 571.5,298.5 Z"/></g>
  <g><path style="opacity:1" fill="#49c251" d="M 532.5,307.5 C 533.552,307.351 534.552,307.517 535.5,308C 532.628,314.279 531.794,320.779 533,327.5C 523.29,336.267 513.124,344.434 502.5,352C 499.299,354.898 496.965,358.398 495.5,362.5C 496.27,364.272 497.603,365.272 499.5,365.5C 502.011,363.75 504.511,362.083 507,360.5C 510.229,361.099 513.396,361.932 516.5,363C 511.757,364.47 507.091,366.136 502.5,368C 498.181,369.46 495.181,368.126 493.5,364C 498.649,351.869 504.482,340.036 511,328.5C 511.238,332.222 511.738,335.889 512.5,339.5C 513.365,340.583 514.365,340.749 515.5,340C 517.074,338.174 517.907,336.007 518,333.5C 518.333,328.5 518.667,323.5 519,318.5C 522.769,313.894 527.269,310.227 532.5,307.5 Z"/></g>
  <g><path style="opacity:1" fill="#57c55c" d="M 413.5,340.5 C 418.046,339.635 421.046,341.301 422.5,345.5C 420.477,346.041 418.477,345.541 416.5,344C 408.924,343.898 407.591,346.898 412.5,353C 411.335,354.084 410.002,354.917 408.5,355.5C 405.833,351.167 403.167,346.833 400.5,342.5C 404.982,341.833 409.316,341.166 413.5,340.5 Z"/></g>
  <g><path style="opacity:1" fill="#4ec555" d="M 430.5,339.5 C 435.241,339.915 439.907,340.749 444.5,342C 446.667,342.833 448.167,344.333 449,346.5C 450.523,349.491 451.023,352.491 450.5,355.5C 445.329,353.244 439.995,351.577 434.5,350.5C 433.18,346.878 431.847,343.212 430.5,339.5 Z"/></g>
  <g><path style="opacity:1" fill="#42c44d" d="M 527.5,342.5 C 532.222,343.346 536.889,344.512 541.5,346C 538.167,348.667 534.833,351.333 531.5,354C 526.601,354.277 521.935,353.277 517.5,351C 521.025,348.302 524.358,345.469 527.5,342.5 Z"/></g>
  <g><path style="opacity:1" fill="#51be57" d="M 461.5,349.5 C 466.777,351.264 471.111,354.43 474.5,359C 470.479,358.965 466.479,358.465 462.5,357.5C 461.908,354.873 461.575,352.206 461.5,349.5 Z"/></g>
  <g><path style="opacity:1" fill="#4fca57" d="M 422.5,359.5 C 428.558,361.015 434.558,362.515 440.5,364C 435.428,366.08 430.595,368.58 426,371.5C 421.445,369.807 417.278,367.474 413.5,364.5C 416.479,362.633 419.479,360.967 422.5,359.5 Z"/></g>
  <g><path style="opacity:1" fill="#51cb59" d="M 454.5,366.5 C 460.042,367.626 465.376,369.459 470.5,372C 468.112,373.861 465.446,375.194 462.5,376C 455.5,376.667 448.5,376.667 441.5,376C 446.611,373.789 450.944,370.623 454.5,366.5 Z"/></g>
  <g><path style="opacity:1" fill="#ebd4a6" d="M 501.5,414.5 C 509.883,414.914 518.216,415.747 526.5,417C 550.966,425.933 575.633,434.266 600.5,442C 627.06,454.562 645.227,474.729 655,502.5C 667.26,536.468 672.26,571.468 670,607.5C 668.851,629.455 660.851,648.455 646,664.5C 624.221,686.31 598.055,700.143 567.5,706C 556.555,708.324 545.555,710.324 534.5,712C 507.85,713.487 481.183,713.82 454.5,713C 433.014,710.837 412.681,704.837 393.5,695C 359.552,670.217 344.719,636.717 349,594.5C 352.023,570.765 358.689,548.098 369,526.5C 378.816,504.179 391.15,483.512 406,464.5C 428.842,439.743 456.842,424.076 490,417.5C 493.155,418.278 496.322,418.445 499.5,418C 500.823,417.184 501.489,416.017 501.5,414.5 Z"/></g>
  <g><path style="opacity:1" fill="#050605" d="M 546.5,497.5 C 552.646,496.547 558.146,497.88 563,501.5C 568.582,516.51 563.415,523.344 547.5,522C 541.068,518.301 538.568,512.801 540,505.5C 541.479,502.172 543.645,499.506 546.5,497.5 Z"/></g>
  <g><path style="opacity:1" fill="#050605" d="M 447.5,507.5 C 461.207,507.042 466.041,513.375 462,526.5C 456.395,532.776 449.895,533.943 442.5,530C 435.894,520.547 437.561,513.047 447.5,507.5 Z"/></g>
  <g><path style="opacity:1" fill="#050504" d="M 588.5,584.5 C 597.328,583.839 600.495,587.839 598,596.5C 595.036,604.928 590.203,612.095 583.5,618C 571.713,627.116 559.38,635.45 546.5,643C 519.573,656.463 491.573,659.129 462.5,651C 451.134,647.48 440.134,643.146 429.5,638C 424.497,634.007 420.663,629.174 418,623.5C 415.906,611.25 420.406,607.75 431.5,613C 434.312,617.742 438.312,621.075 443.5,623C 471.432,634.533 499.765,635.533 528.5,626C 533.446,624.194 538.112,621.861 542.5,619C 558.08,607.723 573.414,596.223 588.5,584.5 Z"/></g>
</svg>